<svg width="21" height="20" viewBox="0 0 21 20" fill="none" xmlns="http://www.w3.org/2000/svg">
<path d="M20.1339 10.2103C20.1339 9.44113 19.5104 8.81762 18.7413 8.81762H11.778V1.85433C11.778 1.08518 11.1545 0.46167 10.3853 0.46167C9.61618 0.46167 8.99267 1.08518 8.99267 1.85433V8.81762H2.02938C1.26023 8.81762 0.636719 9.44113 0.636719 10.2103C0.636719 10.9794 1.26023 11.6029 2.02938 11.6029H8.99267V18.5662C8.99267 19.3354 9.61618 19.9589 10.3853 19.9589C11.1545 19.9589 11.778 19.3354 11.778 18.5662V11.6029H18.7413C19.5104 11.6029 20.1339 10.9794 20.1339 10.2103Z" fill="white"/>
</svg>
